<svg width="200" height="200" viewBox="0 0 200 200" fill="none" xmlns="http://www.w3.org/2000/svg">
<path d="M154.236 80.8466C152.882 83.8779 149.056 89.1648 145.956 93.9097C123.462 128.336 90.3355 145.494 56.2265 161.369C48.3303 165.045 38.0298 169.508 25.5981 174.03C19.4157 176.278 13.7417 169.688 16.9491 163.943C42.4439 118.272 67.9433 72.6028 93.4684 26.932C94.8664 24.4289 98.4259 24.3394 99.9408 26.7726C102.281 30.5324 102.719 31.727 105.126 35.5188C105.387 35.9301 108.881 41.4796 116.028 52.4769C133.039 78.6563 137.59 84.8129 142.418 85.3578C144.913 85.6402 148.903 85.2152 154.236 80.8466Z" fill="#1560F5"/>
<path d="M171.635 94.2957L171.653 94.3094L171.992 90.2216C173.684 75.6649 175.368 61.1916 177.06 46.6318C177.125 46.0489 176.47 45.6543 175.993 45.9943C163.088 55.2277 150.293 64.3868 137.43 73.5884C137.423 73.5945 137.408 73.6142 137.399 73.6218C137.059 73.807 136.822 74.1591 136.829 74.5735C136.838 75.1442 137.295 75.5935 137.859 75.6178L137.843 75.6285L139.785 75.7681C139.959 75.7863 140.088 75.7985 140.088 75.7985C144.342 76.1248 154.944 75.6178 157.883 75.4706C160.055 72.3467 162.226 69.2229 164.398 66.0975C162.67 69.4885 160.943 72.878 159.216 76.2675C162.699 82.4272 166.127 88.4533 169.612 94.613C169.785 94.9894 170.164 95.2505 170.606 95.2444C170.715 95.2429 170.815 95.2095 170.916 95.1761C170.919 95.1776 170.922 95.1791 170.926 95.1807C170.931 95.1791 170.934 95.1731 170.938 95.1715C171.318 95.038 171.585 94.7056 171.635 94.2957Z" fill="#1560F5"/>
<path d="M182.946 167.628C178.714 162.32 174.86 158.619 168.333 149.006C158.38 134.349 156.305 117.842 155.249 108.876C154.551 102.953 154.16 94.3722 155.889 83.9912C152.762 91.1041 149.042 98.6906 144.607 106.578C137.939 118.43 130.955 128.641 124.315 137.274L113.565 149.982C113.541 150.011 113.415 150.174 113.415 150.174C109.957 154.492 112.735 161.172 118.591 161.502C127.8 162.022 138.177 163.287 149.364 165.816C159.998 168.218 169.49 171.339 177.752 174.648C182.096 176.389 185.864 171.288 182.946 167.628Z" fill="#1560F5"/>
</svg>
