<svg width="512" height="512" viewBox="0 0 512 512" fill="none" xmlns="http://www.w3.org/2000/svg">
<rect width="512" height="512" rx="128" fill="white"/>
<path d="M353.248 210.832C350.621 216.714 343.195 226.973 337.18 236.181C293.53 302.987 229.246 336.283 163.056 367.088C147.733 374.222 127.744 382.882 103.62 391.657C91.6228 396.02 80.6123 383.233 86.8363 372.084C136.31 283.458 185.793 194.834 235.325 106.208C238.038 101.351 244.946 101.177 247.885 105.899C252.427 113.195 253.276 115.513 257.947 122.871C258.454 123.669 265.235 134.438 279.102 155.779C312.113 206.581 320.944 218.528 330.314 219.586C335.157 220.134 342.898 219.309 353.248 210.832Z" fill="#1E66F5"/>
<path d="M387.011 236.93L387.046 236.957L387.703 229.024C390.988 200.776 394.254 172.69 397.538 144.436C397.665 143.305 396.393 142.54 395.468 143.199C370.424 161.117 345.596 178.891 320.636 196.747C320.621 196.759 320.591 196.797 320.574 196.812C319.914 197.171 319.454 197.854 319.469 198.658C319.487 199.766 320.373 200.638 321.466 200.685L321.437 200.706L325.204 200.977C325.543 201.012 325.793 201.036 325.793 201.036C334.047 201.669 354.622 200.685 360.324 200.399C364.539 194.337 368.751 188.275 372.967 182.21C369.615 188.791 366.262 195.368 362.91 201.946C369.67 213.899 376.322 225.593 383.085 237.546C383.42 238.276 384.157 238.783 385.014 238.771C385.226 238.768 385.42 238.704 385.615 238.639C385.621 238.642 385.627 238.645 385.635 238.648C385.644 238.645 385.65 238.633 385.659 238.63C386.395 238.371 386.914 237.726 387.011 236.93Z" fill="#1E66F5"/>
<path d="M408.961 379.235C400.748 368.934 393.27 361.753 380.604 343.099C361.29 314.656 357.263 282.623 355.213 265.224C353.858 253.73 353.101 237.079 356.456 216.934C350.388 230.737 343.168 245.459 334.561 260.764C321.622 283.763 308.069 303.578 295.185 320.332L274.325 344.993C274.277 345.048 274.033 345.364 274.033 345.364C267.323 353.744 272.713 366.707 284.077 367.346C301.948 368.357 322.084 370.81 343.793 375.718C364.429 380.381 382.848 386.437 398.881 392.858C407.311 396.237 414.622 386.337 408.961 379.235Z" fill="#1E66F5"/>
</svg>
